<svg width="117" height="100" viewBox="0 0 117 100" fill="none" xmlns="http://www.w3.org/2000/svg">
<path d="M0.85849 23.913V9.31677C0.85849 6.62526 1.72487 4.39958 3.45763 2.63975C5.19039 0.879915 7.38182 0 10.0319 0H98.0969C100.747 0 102.938 0.879915 104.671 2.63975C106.404 4.39958 107.27 6.62526 107.27 9.31677V41.6149H102.989V9.31677C102.989 8.07453 102.48 6.93582 101.461 5.90062C100.441 4.86542 99.32 4.34783 98.0969 4.34783H10.0319C8.8088 4.34783 7.6876 4.86542 6.66833 5.90062C5.64906 6.93582 5.13943 8.07453 5.13943 9.31677V23.913H0.85849ZM10.0319 83.2298C7.38182 83.2298 5.19039 82.3499 3.45763 80.5901C1.72487 78.8302 0.85849 76.6046 0.85849 73.9131V59.3168H5.13943V73.9131C5.13943 75.1553 5.64906 76.294 6.66833 77.3292C7.6876 78.3644 8.8088 78.882 10.0319 78.882H47.7959V83.2298H10.0319ZM90.7582 100L84.7954 94.8758C76.4374 87.5259 71.1127 82.4803 68.8214 79.7391C66.526 76.9938 65.3783 74.2754 65.3783 71.5839C65.3783 68.2712 66.4995 65.3996 68.7419 62.9689C70.9843 60.5342 73.7363 59.3168 76.998 59.3168C78.6288 59.3168 80.1577 59.6791 81.5847 60.4037C83.0117 61.1284 84.5406 62.2153 86.1714 63.6646L90.7582 67.8571L95.0391 63.8199C96.6699 62.3706 98.2498 61.2567 99.7787 60.4783C101.308 59.7039 102.887 59.3168 104.518 59.3168C107.678 59.3168 110.406 60.5342 112.701 62.9689C114.992 65.3996 116.138 68.2712 116.138 71.5839C116.138 74.2754 114.966 76.9938 112.622 79.7391C110.277 82.4803 104.926 87.5259 96.568 94.8758L90.7582 100ZM90.7582 94.0994L95.6507 89.9068C102.48 84.0062 106.889 79.942 108.879 77.7143C110.864 75.4907 111.857 73.4472 111.857 71.5839C111.857 69.5135 111.119 67.677 109.643 66.0745C108.163 64.4679 106.455 63.6646 104.518 63.6646C103.295 63.6646 102.2 63.8965 101.234 64.3603C100.264 64.8282 99.2181 65.6315 98.0969 66.7702L90.7582 73.9131L83.2665 66.7702C82.1453 65.6315 81.1016 64.8282 80.1353 64.3603C79.165 63.8965 78.1192 63.6646 76.998 63.6646C74.9595 63.6646 73.2267 64.4679 71.7997 66.0745C70.3727 67.677 69.6593 69.5135 69.6593 71.5839C69.6593 73.3437 70.7805 75.4928 73.0229 78.0311C75.2653 80.5652 79.6481 84.6273 86.1714 90.2174L90.7582 94.0994ZM23.4863 68.6335C22.9767 68.6335 22.569 68.5549 22.2632 68.3975C21.9574 68.2443 21.7026 67.9607 21.4987 67.5466L9.87904 43.7888H0.85849V39.441H11.2551C11.6628 39.441 12.0195 39.5445 12.3253 39.7516C12.6311 39.9586 12.8859 40.2692 13.0897 40.6832L23.4863 61.646L45.9612 15.8385C46.1651 15.528 46.4444 15.294 46.7991 15.1366C47.1578 14.9834 47.5411 14.9068 47.9488 14.9068C48.3565 14.9068 48.7132 14.9834 49.019 15.1366C49.3248 15.294 49.5796 15.528 49.7835 15.8385L61.4032 39.441H80.6674V43.7888H60.18C59.6704 43.7888 59.2627 43.7101 58.9569 43.5528C58.6511 43.3996 58.3963 43.1159 58.1925 42.7019L47.7959 21.7391L25.321 67.5466C25.1171 67.9607 24.8623 68.2443 24.5565 68.3975C24.2508 68.5549 23.894 68.6335 23.4863 68.6335Z" fill="#4656A1"/>
</svg>
