<svg width="40" height="40" viewBox="0 0 40 40" fill="none" xmlns="http://www.w3.org/2000/svg">
<path d="M22.0535 0C25.6548 0 26.4156 0.0405191 28.2552 0.120057C30.3755 0.220605 31.837 0.559766 33.0975 1.061C34.418 1.56074 35.5389 2.26157 36.6388 3.3616C37.7597 4.46162 38.4394 5.58265 38.9601 6.90328C39.4598 8.16388 39.7809 9.62407 39.88 11.7656C39.9805 13.667 40 14.4068 40 18.4092V21.6103C40 25.6127 39.9805 26.3525 39.88 28.2539C39.8454 30.0023 39.5108 31.6605 38.9256 33.1973L38.9586 33.0967C38.4379 34.4174 37.7582 35.5384 36.6583 36.6384C35.5374 37.7594 34.418 38.4393 33.0975 38.96C31.837 39.4597 30.377 39.7809 28.2552 39.8799C26.3541 39.9805 25.5948 40 21.5928 40H18.4117C14.4097 40 13.67 39.9805 11.7493 39.8799C10.0011 39.8454 8.34302 39.5108 6.80647 38.9255L6.907 38.9585C5.522 38.4288 4.34107 37.6469 3.36722 36.6579L3.36572 36.6564C2.36636 35.6779 1.57707 34.4894 1.06689 33.1613L1.04438 33.0937C0.493679 31.659 0.159058 29.9993 0.124545 28.2659V28.2509C0.0450162 26.6872 0 24.8548 0 23.0134C0 22.6743 0.00150022 22.3351 0.00450131 21.9974V22.0485V17.947C0.00450131 14.3453 0.0450162 13.5845 0.124545 11.7446C0.225082 9.62407 0.564204 8.16238 1.04438 6.90178C1.56507 5.58115 2.24481 4.46012 3.36572 3.3601C4.33357 2.35912 5.5175 1.57425 6.84248 1.08051L6.907 1.0595C8.34002 0.502739 9.99812 0.160576 11.7313 0.120057H11.7493C13.5904 0.0405191 14.3497 0 17.951 0H22.0535ZM22.094 3.60171H17.912C14.4502 3.60171 13.7105 3.64223 11.9098 3.72177C9.96961 3.80131 8.90873 4.12246 8.20798 4.40159C7.26713 4.76176 6.60689 5.20147 5.90764 5.9023C5.20839 6.60314 4.76723 7.26345 4.4071 8.2029C4.1475 8.90373 3.80688 9.96323 3.72735 11.9247C3.64782 13.7255 3.60731 14.4459 3.60731 17.9275V22.089C3.60731 25.5706 3.64782 26.291 3.72735 28.0918C3.80688 30.0323 4.128 31.0933 4.4071 31.7941C4.76723 32.7351 5.20689 33.3954 5.90764 34.0947C6.6084 34.794 7.26864 35.2352 8.20798 35.5954C8.90873 35.876 9.96811 36.1957 11.9293 36.2752C13.8695 36.3758 14.5703 36.3953 18.8918 36.3953H21.1127C25.4537 36.3953 26.135 36.3758 28.0947 36.2752C30.0349 36.1957 31.0958 35.8745 31.7965 35.5954C32.7374 35.2352 33.3976 34.7955 34.0969 34.0947C34.7961 33.3939 35.2373 32.7336 35.5974 31.7941C35.878 31.0933 36.1976 30.0338 36.2772 28.0918C36.3777 26.1304 36.3972 25.4506 36.3972 21.109V18.9075C36.3972 14.5659 36.3777 13.8651 36.2772 11.9037C36.1976 9.96323 35.8765 8.90223 35.5974 8.2014C35.2583 7.29947 34.7466 6.5296 34.0984 5.9023L34.0969 5.9008C33.4666 5.25099 32.6984 4.73925 31.8385 4.4136L31.7965 4.40009C30.6981 3.98589 29.4287 3.73828 28.1022 3.72027H28.0947C26.5521 3.64223 24.747 3.59721 22.9298 3.59721C22.6357 3.59721 22.3416 3.59871 22.0475 3.60021H22.0925L22.094 3.60171ZM20.0128 9.72462C25.6863 9.72462 30.287 14.3243 30.287 20C30.287 25.6757 25.6878 30.2754 20.0128 30.2754C14.3392 30.2754 9.73853 25.6757 9.73853 20C9.73853 14.3243 14.3377 9.72462 20.0128 9.72462ZM20.0128 13.3263C16.3274 13.3263 13.3398 16.3143 13.3398 20C13.3398 23.6858 16.3274 26.6737 20.0128 26.6737C23.6981 26.6737 26.6857 23.6858 26.6857 20C26.6857 16.3143 23.6981 13.3263 20.0128 13.3263ZM30.6771 6.92279C32.0036 6.92279 33.078 7.9973 33.078 9.32393C33.078 10.6506 32.0036 11.7251 30.6771 11.7251C29.3506 11.7251 28.2763 10.6506 28.2763 9.32393C28.2763 7.9973 29.3506 6.92279 30.6771 6.92279Z" fill="#4656A1"/>
</svg>
