<svg width="40" height="40" viewBox="0 0 40 40" fill="none" xmlns="http://www.w3.org/2000/svg">
<path d="M20 0C8.94626 0.040498 0 8.97855 0 19.9985C0 28.3966 5.19645 35.5872 12.5591 38.5496L12.6931 38.5976C12.4929 37.0182 12.3513 34.5973 12.7533 32.8574L15.1016 22.9174C15.1016 22.9174 14.4995 21.7174 14.4995 19.958C14.4995 17.1786 16.1252 15.1177 18.1529 15.1177C19.8585 15.1177 20.7015 16.3972 20.7015 17.9181C20.7015 19.6385 19.5981 22.1974 19.0155 24.5778C18.5338 26.5772 20.0196 28.1971 22.0066 28.1971C25.5788 28.1971 28.3095 24.4578 28.3095 19.058C28.3095 14.2583 24.8577 10.939 19.9202 10.939C19.8058 10.933 19.6733 10.93 19.5394 10.93C14.7388 10.93 10.849 14.8073 10.849 19.589C10.849 19.592 10.849 19.595 10.849 19.598C10.849 21.3184 11.5114 23.1573 12.3348 24.1578C12.4959 24.3573 12.5154 24.5373 12.4552 24.7383L11.8937 26.9986C11.8139 27.3586 11.5927 27.4591 11.2314 27.2791C8.70239 26.0987 7.13684 22.4794 7.13684 19.52C7.13684 13.2203 11.7537 7.44113 20.4245 7.44113C27.3687 7.44113 32.809 12.3609 32.809 18.9801C32.809 25.8797 28.4329 31.4189 22.3724 31.4189C20.3658 31.4189 18.439 30.3585 17.7962 29.1195L16.5317 33.8593C15.8829 35.8647 15.0384 37.6061 13.9907 39.2035L14.0418 39.1195C15.8031 39.6775 17.8293 40 19.9293 40C31.0146 40 40 31.0455 40 20.0015C40 8.98155 31.0552 0.0434976 20.006 0.00299963H20.0015L20 0Z" fill="#4656A1"/>
</svg>
