<svg width="130" height="135" viewBox="0 0 130 135" fill="none" xmlns="http://www.w3.org/2000/svg">
<path d="M17.9435 22.8002C28.5359 10.7955 41.536 3.84257 57 1.89654V12.397C44.2036 14.246 33.4723 20.2216 24.8606 30.2783C15.9497 40.6845 11.5 53.0679 11.5 67.3521C11.5 73.7978 12.4429 79.8899 14.3384 85.6193C16.0941 90.926 18.571 95.8157 21.7685 100.283L14.5993 107.725C10.6512 102.365 7.529 96.4189 5.2341 89.8805C2.74723 82.7951 1.5 75.2888 1.5 67.3521C1.5 50.0454 6.98365 35.2213 17.9435 22.8002ZM65 133.325C57.2661 133.325 49.9739 132.006 43.1118 129.376C36.7278 126.929 30.9419 123.587 25.7478 119.348L32.8097 111.887C37.0973 115.18 41.8329 117.785 47.0107 119.701C52.6578 121.79 58.6578 122.831 65 122.831C71.3422 122.831 77.3422 121.79 82.9893 119.701C88.1671 117.785 92.9027 115.18 97.1903 111.887L104.252 119.348C99.0581 123.587 93.2722 126.929 86.8882 129.376C80.0261 132.006 72.7339 133.325 65 133.325ZM73 12.397V1.89654C88.464 3.84257 101.464 10.7955 112.056 22.8002C123.016 35.2213 128.5 50.0454 128.5 67.3521C128.5 75.2888 127.253 82.7951 124.766 89.8805C122.471 96.4189 119.349 102.365 115.401 107.725L108.232 100.283C111.429 95.8157 113.906 90.926 115.662 85.6193C117.557 79.8899 118.5 73.7978 118.5 67.3521C118.5 53.0679 114.05 40.6845 105.139 30.2783C96.5277 20.2216 85.7964 14.246 73 12.397ZM91.5477 67.3521L50.25 94.9107V39.7935L91.5477 67.3521Z" fill="white" stroke="#4656A1" stroke-width="3"/>
</svg>
