<svg width="139" height="100" viewBox="0 0 139 100" fill="none" xmlns="http://www.w3.org/2000/svg">
<path d="M58.0784 66.8571L43.8249 52.381L93.7121 1.71429C94.8373 0.571431 96.1502 0 97.6505 0C99.1509 0 100.464 0.571431 101.589 1.71429L107.966 8.19048C109.091 9.33333 109.653 10.6667 109.653 12.1905C109.653 13.7143 109.091 15.0476 107.966 16.1905L58.0784 66.8571ZM58.0784 59.2381L104.59 12.1905L97.6505 5.14286L51.3267 52.381L58.0784 59.2381ZM72.8945 99.8095L78.1458 94.4762H138.723V99.8095H72.8945ZM16.6308 100C13.8801 100 11.1919 99.6825 8.56629 99.0476C5.94065 98.4127 3.37753 97.3968 0.876915 96L35.7604 60.5714L48.326 73.3333C49.2012 74.2222 49.9214 75.2051 50.4865 76.2819C51.0467 77.3638 51.3267 78.5397 51.3267 79.8095C51.3267 81.0794 51.0767 82.2857 50.5765 83.4286C50.0764 84.5714 49.3888 85.5873 48.5135 86.4762L44.9502 90.2857C41.8244 93.5873 38.1685 96.0305 33.9825 97.6152C29.7915 99.2051 25.5079 100 21.1319 100H16.6308ZM16.6308 94.6667H21.1319C24.8828 94.6667 28.5087 93.9352 32.0095 92.4724C35.5104 91.0146 38.5736 88.9524 41.1993 86.2857L44.7626 82.6667C45.5128 81.9048 45.8579 80.9829 45.7979 79.9009C45.7329 78.8241 45.2627 77.8413 44.3875 76.9524L35.7604 68.1905L10.6293 93.5238C11.2544 93.9048 12.1622 94.1892 13.3525 94.3771C14.5377 94.5702 15.6305 94.6667 16.6308 94.6667Z" fill="#4656A1"/>
</svg>
