<svg width="55" height="134" viewBox="0 0 55 134" fill="none" xmlns="http://www.w3.org/2000/svg">
<path d="M0.48034 21.6573C0.482036 21.0217 0.69938 20.4849 1.13237 20.0471C1.56223 19.6124 2.12928 19.3559 2.83355 19.2776L25.1286 19.3137L25.0485 5.37L18.0079 5.35859C17.2257 5.35732 16.6207 5.13864 16.1932 4.70256C15.7626 4.26329 15.5873 3.6862 15.6675 2.97127C15.5911 2.25609 15.7695 1.67957 16.2025 1.24171C16.6323 0.807016 17.2384 0.590304 18.0207 0.591573L36.6778 0.741004C37.382 0.662695 37.9495 0.843173 38.3801 1.28244C38.8076 1.71852 39.0204 2.33381 39.0182 3.12832C39.0165 3.76392 38.8008 4.29907 38.3709 4.73376C37.9379 5.17162 37.4085 5.39005 36.7827 5.38903L29.5075 5.37723L29.5876 19.3209L51.8826 19.3571C52.6649 19.3584 53.2713 19.5786 53.702 20.0179C54.1295 20.454 54.3032 21.0295 54.223 21.7444C54.2994 22.4596 54.1226 23.0345 53.6927 23.4692C53.2598 23.9071 52.6521 24.1254 51.8698 24.1241L46.9415 24.1161L46.7727 87.279C46.7651 90.1393 45.7808 92.5609 43.8198 94.544C41.8588 96.5271 39.5094 97.4767 36.7716 97.3928L29.4964 97.381L29.399 133.849L24.718 129.074L24.8027 97.3734L17.5275 97.3616C14.8677 97.3573 12.5627 96.3604 10.6123 94.371C8.66186 92.3815 7.65127 89.9964 7.58047 87.2155L7.74919 24.0526L2.82082 24.0446C2.03853 24.0433 1.45235 23.8437 1.06228 23.4458C0.672196 23.048 0.478216 22.4518 0.48034 21.6573ZM12.2082 24.0598L12.0395 87.2227C12.1137 88.7324 12.6579 90.0045 13.6721 91.039C14.6863 92.0735 15.9364 92.6317 17.4226 92.7135L36.7843 92.6258C38.2705 92.7076 39.5438 92.2123 40.6043 91.1399C41.6617 90.0706 42.1533 88.7811 42.0791 87.2714L42.2324 73.8048L27.4473 73.7808C26.665 73.7796 26.0788 73.58 25.6887 73.1821C25.2986 72.7842 25.1045 72.2675 25.1062 71.6319C25.0298 70.9167 25.2082 70.3402 25.6412 69.9023C26.071 69.4676 26.6771 69.2509 27.4594 69.2522L42.2445 69.2762L42.1847 47.7052L27.3996 47.6812C26.7738 47.6802 26.2471 47.4617 25.8196 47.0256C25.389 46.5863 25.1355 46.0091 25.0592 45.2939C25.1393 44.579 25.3959 44.0026 25.8289 43.5648C26.2587 43.1301 26.7865 42.9132 27.4124 42.9142L42.1975 42.9382L42.2478 24.1085L12.2082 24.0598Z" fill="#4656A1"/>
</svg>
