<svg width="40" height="34" viewBox="0 0 40 34" fill="none" xmlns="http://www.w3.org/2000/svg">
<path d="M39.997 3.93261C38.497 4.70627 36.997 4.97932 35.2376 5.23041C36.997 4.1837 38.2375 2.61442 38.737 0.522569C37.2295 1.47669 35.4731 2.20327 33.6026 2.59716L33.4976 2.61599C31.9511 1.02474 29.8376 0.0329549 27.5037 0H27.4977C23.2377 0 19.4983 3.93418 19.4983 8.64202C19.4983 9.41567 19.4983 9.93981 19.7578 10.4624C12.8908 10.1831 6.82941 6.79498 2.79146 1.61322L2.75847 1.56928C2.12097 2.70858 1.74448 4.07699 1.74448 5.53799C1.74448 5.70904 1.74898 5.88009 1.75948 6.04957L1.75798 6.02603C1.80898 8.97314 3.27146 11.5515 5.46743 13.058L5.49893 13.0784C4.23895 13.0784 2.99846 12.5558 1.73848 12.0317C1.73848 16.2169 4.49844 19.627 8.2379 20.4006C7.49841 20.6721 6.73792 20.6721 5.99843 20.6721C5.49893 20.6721 4.99794 20.6721 4.49844 20.4006C5.49893 23.8107 8.49889 26.4267 12.2578 26.4267C9.55788 28.71 6.08392 30.0909 2.30247 30.0909C2.19597 30.0909 2.08947 30.0894 1.98298 30.0878H1.99948H0C3.54746 32.4558 7.8539 33.8996 12.4738 34H12.4993C27.4992 34 35.7596 20.9232 35.7596 9.66519V8.61848C37.48 7.37875 38.899 5.81418 39.964 3.99852L40 3.93261H39.997Z" fill="#4656A1"/>
</svg>
