<svg width="26" height="38" viewBox="0 0 26 38" fill="none" xmlns="http://www.w3.org/2000/svg">
<path fill-rule="evenodd" clip-rule="evenodd" d="M6.56649 37.0757L18.3862 37.1201C22.0123 37.1337 24.9639 34.1807 24.9776 30.5285L25.067 6.70992C25.0807 3.05774 22.1513 0.0826201 18.5253 0.0690103L6.70556 0.0246465C3.07953 0.0110367 0.127913 2.96409 0.114205 6.61627L0.0248052 30.4348C0.0110972 34.087 2.94046 37.0621 6.56649 37.0757ZM18.3962 34.4736L6.57643 34.4292C4.40028 34.4211 2.64317 32.6413 2.65141 30.4447L2.74081 6.62613C2.74906 4.42953 4.51948 2.66299 6.69563 2.67115L18.5154 2.71552C20.6915 2.72369 22.4486 4.50347 22.4404 6.70007L22.351 30.5186C22.3427 32.7152 20.5723 34.4818 18.3962 34.4736Z" fill="#4656A1"/>
</svg>
