<svg width="28" height="36" viewBox="0 0 28 36" fill="none" xmlns="http://www.w3.org/2000/svg">
<path fill-rule="evenodd" clip-rule="evenodd" d="M13.2109 35.73C13.2109 35.73 13.2109 35.7299 14 34.7142L13.2109 35.73C13.6691 36.09 14.3309 36.09 14.7891 35.73L14 34.7142C14.7891 35.7299 14.7891 35.73 14.7891 35.73V35.7171H14.8018L14.8273 35.6914C14.8655 35.6657 14.9036 35.64 14.9418 35.5886C15.0436 35.5114 15.1836 35.3957 15.3745 35.2414C15.7309 34.9329 16.24 34.4828 16.8509 33.9042C18.0727 32.7599 19.7146 31.1143 21.3437 29.1085C24.5764 25.1743 28 19.6328 28 13.7442C28 6.11992 21.7 0 14 0C6.3 0 0 6.11992 0 13.7442C0 19.6328 3.42361 25.1743 6.65634 29.1085C8.28543 31.1143 9.92729 32.7599 11.1491 33.9042C11.76 34.4828 12.2691 34.9329 12.6255 35.2414C12.8164 35.3957 12.9564 35.5114 13.0582 35.5886C13.0964 35.64 13.1345 35.6657 13.1727 35.6914L13.1982 35.7171H13.2109V35.73ZM2.54545 13.7442C2.54545 7.61134 7.63636 2.57142 14 2.57142C20.3636 2.57142 25.4545 7.61134 25.4545 13.7442C25.4545 18.6942 22.5145 23.6442 19.3836 27.4757C17.8309 29.3657 16.2909 30.9343 15.12 32.0143C14.6873 32.4257 14.3055 32.7727 14 33.0427C13.6945 32.7727 13.3127 32.4257 12.88 32.0143C11.7091 30.9343 10.1691 29.3657 8.61639 27.4757C5.48548 23.6442 2.54545 18.6942 2.54545 13.7442Z" fill="#4656A1"/>
</svg>
